<?xml version="1.0" standalone="no"?>
<!DOCTYPE svg PUBLIC "-//W3C//DTD SVG 20010904//EN"
 "http://www.w3.org/TR/2001/REC-SVG-20010904/DTD/svg10.dtd">
<svg version="1.0" xmlns="http://www.w3.org/2000/svg"
 width="2550.000000pt" height="2550.000000pt" viewBox="0 0 2550.000000 2550.000000"
 preserveAspectRatio="xMidYMid meet">
<metadata>
Created by potrace 1.14, written by Peter Selinger 2001-2017
</metadata>
<g transform="translate(0.000000,2550.000000) scale(0.100000,-0.100000)"
fill="#000000" stroke="none">
<path d="M5185 20665 c-15 -122 18 -615 61 -915 118 -824 393 -1560 794 -2119
122 -171 245 -315 405 -476 492 -494 1061 -941 1963 -1544 l182 -122 -54 -67
c-274 -340 -462 -810 -507 -1268 -14 -148 -7 -430 16 -579 75 -494 300 -950
648 -1311 375 -391 874 -645 1412 -719 565 -78 1162 57 1637 371 62 41 113 74
115 74 6 0 245 -485 349 -706 171 -367 498 -1117 528 -1212 9 -28 23 -28 32 0
30 95 357 845 528 1212 104 221 343 706 349 706 2 0 54 -34 117 -76 700 -462
1610 -518 2367 -145 493 243 869 618 1108 1106 156 319 231 622 242 985 6 200
-6 352 -43 544 -68 350 -252 747 -470 1018 l-54 67 182 122 c902 603 1471
1050 1963 1544 160 161 283 305 405 476 459 641 756 1523 834 2474 20 244 30
502 21 566 l-7 53 -22 -30 c-11 -16 -70 -92 -130 -169 -937 -1201 -2091 -2186
-3595 -3068 l-164 -97 -36 31 c-98 82 -372 283 -496 365 -966 636 -2082 957
-3230 931 -278 -7 -473 -22 -706 -56 -838 -124 -1633 -430 -2337 -903 -97 -65
-373 -271 -453 -338 l-36 -30 -174 103 c-1418 839 -2447 1691 -3359 2782 -105
126 -301 373 -356 449 l-21 29 -8 -58z m4517 -5936 c84 -62 206 -155 271 -206
l118 -94 -41 -33 c-214 -169 -279 -479 -153 -735 65 -131 210 -254 353 -300
208 -65 442 -6 602 152 32 31 60 57 62 57 15 0 386 -557 386 -579 0 -20 -206
-163 -303 -211 -125 -60 -223 -93 -347 -114 -120 -20 -328 -21 -445 0 -434 75
-813 385 -974 797 -61 156 -84 283 -85 462 0 86 5 182 13 225 30 166 111 367
203 503 64 94 158 199 174 193 8 -3 83 -56 166 -117z m6337 52 c155 -180 261
-402 302 -631 22 -119 17 -354 -10 -480 -95 -449 -423 -814 -859 -960 -240
-80 -553 -81 -792 -3 -151 49 -315 140 -437 242 -24 19 -43 39 -43 43 0 21
372 578 386 578 2 0 30 -26 62 -57 240 -238 608 -237 847 2 247 246 225 667
-45 881 l-41 33 118 94 c139 111 433 327 444 327 5 0 35 -31 68 -69z"/>
<path d="M7205 14158 c-20 -86 -176 -858 -234 -1158 -223 -1153 -368 -2013
-475 -2821 -60 -446 -76 -610 -85 -872 -29 -782 94 -1441 370 -1990 l45 -88
105 63 c293 176 626 478 889 806 l105 131 7 -197 c33 -914 241 -1702 605
-2290 55 -90 156 -235 184 -266 11 -12 153 110 285 246 257 266 456 554 670
972 l112 220 5 -45 c3 -24 11 -120 16 -212 55 -854 295 -1623 683 -2187 89
-130 112 -160 125 -160 16 0 186 154 277 251 244 259 436 541 642 944 62 121
115 213 117 205 3 -8 22 -105 42 -215 162 -857 451 -1587 829 -2089 100 -132
235 -286 252 -286 32 0 255 268 385 462 337 503 600 1221 709 1938 6 41 13 86
16 100 4 19 23 -10 98 -155 189 -366 388 -656 622 -904 91 -97 261 -251 277
-251 13 0 36 30 125 160 388 564 628 1333 683 2187 5 92 13 188 16 212 l5 45
112 -220 c214 -418 413 -706 670 -972 132 -136 274 -258 285 -246 28 31 129
176 184 266 364 588 572 1376 605 2290 l7 197 105 -131 c263 -328 596 -630
889 -806 l105 -63 45 88 c276 549 399 1208 370 1990 -9 262 -25 426 -85 872
-118 890 -301 1952 -558 3246 -46 231 -96 490 -111 575 -15 85 -30 160 -34
167 -3 6 -6 -104 -6 -245 0 -325 -21 -498 -95 -792 -221 -873 -831 -1641
-1634 -2056 -480 -248 -955 -364 -1494 -364 -308 0 -610 43 -892 126 -69 20
-135 37 -148 38 -20 1 -32 -19 -98 -164 -229 -502 -313 -705 -814 -1979 -193
-492 -355 -901 -359 -908 -4 -9 -155 362 -386 949 -460 1170 -601 1514 -813
1973 -53 114 -63 130 -84 129 -13 -1 -79 -18 -148 -38 -616 -182 -1313 -167
-1930 42 -704 239 -1308 719 -1706 1357 -330 529 -497 1140 -482 1764 2 100 3
181 1 181 -1 0 -5 -10 -8 -22z"/>
</g>
</svg>
